<svg width="70" height="60" viewBox="0 0 70 60" fill="none" xmlns="http://www.w3.org/2000/svg">
<path fill-rule="evenodd" clip-rule="evenodd" d="M0 50.6291C10.4844 45.423 15.7266 39.3059 15.7266 32.2777C11.2578 31.757 7.56251 29.9132 4.64062 26.7462C1.71873 23.5792 0.25782 19.9133 0.25782 15.7484C0.25782 11.3232 1.67577 7.59221 4.51172 4.55531C7.34767 1.51842 10.914 0 15.2109 0C20.0235 0 24.1914 1.97395 27.7148 5.92191C31.2383 9.86987 33 14.6637 33 20.3037C33 37.2235 23.6329 50.4555 4.89844 60L0 50.6291ZM37 50.6291C47.5704 45.423 52.8555 39.3059 52.8555 32.2777C48.3008 31.757 44.5625 29.9132 41.6406 26.7462C38.7187 23.5792 37.2578 19.9133 37.2578 15.7484C37.2578 11.3232 38.6973 7.59221 41.5762 4.55531C44.4551 1.51842 48.0429 0 52.3398 0C57.1524 0 61.2988 1.97395 64.7793 5.92191C68.2598 9.86987 70 14.6637 70 20.3037C70 37.2235 60.6759 50.4555 42.0273 60L37 50.6291Z" fill="#0163A6" fill-opacity="0.4"/>
</svg>
